<?xml version="1.0" encoding="utf-8"?>
<!-- Generator: Adobe Illustrator 24.1.0, SVG Export Plug-In . SVG Version: 6.00 Build 0)  -->
<svg version="1.1" id="Calque_1" xmlns="http://www.w3.org/2000/svg" xmlns:xlink="http://www.w3.org/1999/xlink" x="0px" y="0px"
	 viewBox="0 0 425.1968994 425.1968994" enable-background="new 0 0 425.1968994 425.1968994" xml:space="preserve">
<g>
	<path d="M196.2758789,220.0401611c0,0,32.7922974,39.1119995,38.4926147,44.5527954
		c5.7003784,5.4408569,26.9000244,16.5357056,26.9000244,16.5357056s-21.4017944-19.7802734-29.9153442-27.0325928
		C223.2396851,246.843811,196.2758789,220.0401611,196.2758789,220.0401611z"/>
	<path d="M217.9570923,234.3736572c0,0,15.4362793,14.803833,22.3580933,20.4329224
		c6.9216919,5.6290283,30.338623,15.5527344,30.338623,15.5527344s-21.6705933-15.557312-28.7620239-20.534729
		C234.8004761,244.84729,217.9570923,234.3736572,217.9570923,234.3736572z"/>
	<path d="M141.3687134,280.4970703c0,0,3.6987915,6.0320435,11.5582886,5.5015869c0,0-1.9364014,4.8067017-3.942688,6.4899292
		c0,0,6.7417603-1.4176025,15.1168823-9.864624c8.375-8.4469604,12.3959961-21.2559814,12.3959961-21.2559814
		s-15.9639893,15.0352783-23.9284058,19.1826782C152.5687866,280.5506592,150.0980225,281.855957,141.3687134,280.4970703z"/>
	<path d="M399.5576172,81.1712646c-14.4495239-23.1903076-41.1932373-23.8831787-52.8024292-22.9613037
		c-2.5180664-3.017395-6.800293-7.2849731-13.9812012-12.5648804c-11.4674683-8.4315186-20.5114746-12.9614868-26.0324707-15.043396
		c8.0651855,0.7894287,18.3338013,4.0048828,31.2644653,11.5241089c0,0-42.5588989-36.0379639-61.4096069-1.7550049
		c-1.9161987,1.3502808-3.8753052,2.8391724-5.8544922,4.4558716c0.2189331-4.3630981-0.2911987-8.6974487-1.5588989-12.8082886
		c-2.657959-8.6188965-8.286499-15.2277832-15.8490601-18.609314c-5.2006226-2.3258667-10.7817383-2.8521729-16.1986084-1.8566895
		c-0.677124-0.2575073-1.3067017-0.4533691-1.8776245-0.5780029c-5.3388672-1.1650391-15.0999756,2.4946289-24.5234985,13.6384277
		c-0.9979248-1.3687134-2.0980225-2.6824341-3.2935791-3.932312c3.7095947-5.3121948,8.2727051-9.482605,13.6759033-12.453125
		l0.1571045-0.09552c0.237793-0.1442871,0.4197998-0.3789062,0.4801636-0.6759033
		c0.1155396-0.5680542-0.2474976-1.1282959-0.8106689-1.2512207c-0.2277222-0.0496826-0.4454956-0.00354-0.6412354,0.086731
		l-0.1499023,0.0657349c-5.6152954,3.078064-10.3653564,7.3666992-14.2286987,12.8192139
		c-5.399292-5.0717163-12.4397583-8.9025269-20.5140991-10.6645508
		c-16.9505615-3.6992798-33.2995605,2.8123169-40.8428955,15.0268555
		c-4.5465088-3.8027954-10.109375-6.6298828-16.3687744-7.9960327
		c-16.5103149-3.6030884-32.5601807,4.0668945-39.1986084,17.6112061c-2.8483276,2.8893433-5.6256104,6.3741455-8.2808838,10.569397
		c0,0-20.2510986,10.2614136-13.0541992,31.5632324c0,0-16.6734009-6.6939087-25.1326904,5.8109741
		c-8.460144,3.5501099-14.7093506,10.1417236-16.4351196,18.6306152c-1.3005371,6.3961792,0.159668,13.2523193,4.1121216,19.3057251
		c0.1586914,0.2422485,0.3979492,0.3984985,0.6576538,0.4552002c0.2620239,0.0571899,0.5447388,0.0130615,0.7849121-0.1459351
		c0.4785767-0.3165894,0.609314-0.9677124,0.2910156-1.4553223c-3.6954956-5.6600952-5.0120239-11.7859497-3.8067017-17.7146606
		c1.4078979-6.9251099,6.1184692-12.4752808,12.6469727-15.9351807c-0.9370728,2.0671997-1.4643555,4.0591431-1.6538086,5.953064
		c-2.1973877,2.5905762-3.737793,5.5986938-4.4195557,8.9525146c-2.6347046,12.9591675,8.3265991,26.5700684,24.9903564,32.0211182
		c0.3760376,1.2888794,1.0895996,2.7192993,2.385437,4.211853c0,0-4.5333862,2.9122925-9.024231,8.1774292
		c-0.5202026-0.0726929-1.0441895-0.1345215-1.5758667-0.1727295c-11.7803345-0.8468018-21.8856201,7.2163086-22.527832,17.9734497
		c0,0,0,0-0.000061,0.0003662c-0.519104,8.7017822,5.3208618,16.5269775,13.8034668,19.6530762
		c-0.1394653,0.923645-0.241394,1.8595581-0.2979126,2.8071289v-0.0004272
		c-0.137146,2.2978516-0.0171509,4.5681152,0.338623,6.7704468c-0.4196777,7.0811768,1.871521,13.9321899,6.453186,19.2921753
		c3.767334,4.4064331,8.7124023,7.3724976,14.187439,8.5671997c1.1938477,0.2606812,2.4115601,0.4365845,3.6488037,0.5253906
		c0.5738525,0.0413208,1.0667725-0.3947144,1.1015015-0.9744873c0.0348511-0.5812988-0.413147-1.0859985-0.9760132-1.1240845
		c-6.3547363-0.4555054-12.1749268-3.4255371-16.3931274-8.3598022c-2.1530762-2.5187988-3.7536011-5.3969116-4.756958-8.4777222
		c0.5782471,1.0306396,1.2193604,2.0231323,1.9272461,2.9663086c3.3865967,4.5112305,7.8885498,7.4888306,12.8904419,8.5803833
		c0.9382935,0.2047119,1.894104,0.3428955,2.8639526,0.4127197c4.1064453,0.2949219,8.0356445-0.6970215,11.5020142-2.6652222
		c0.5466919,1.1636963,1.5026855,2.8657227,3.0385132,4.7238159c-1.6887207,4.2623901-1.7371216,9.0426025-0.1026001,13.6679077
		c1.8615723,5.2658081,5.6876221,9.7033691,10.7714844,12.4934082c2.0287476,1.1130981,4.1647339,1.9122925,6.3398438,2.3869629
		c3.2137451,0.701355,6.5124512,0.6939087,9.6724854-0.0545654c0.5584717-0.1323242,0.8999023-0.6987305,0.7636108-1.2637939
		c-0.1376343-0.5670166-0.7008057-0.9182129-1.2585449-0.7855225c-4.800354,1.137085-9.9636841,0.381897-14.5395508-2.1303101
		c-4.6270142-2.5383911-8.1031494-6.5640869-9.789917-11.3352051c-1.1669312-3.3021851-1.3745117-6.6853027-0.6464844-9.8447876
		c0.6831055,3.3065186,2.081604,6.5106812,4.131958,9.3109131c3.4006348,4.6434937,8.1968994,7.8303833,13.5253296,8.9932861
		c0.0692139,0.0150146,0.1386108,0.0302124,0.2080078,0.0444946c5.4487915,1.132019,10.7857056,0.0189209,15.0275879-3.1344604
		c0.4605713-0.3424072,0.5552979-1.0005493,0.2116089-1.4698486c-0.3432007-0.4684448-0.9949951-0.5720825-1.4562988-0.2297974
		c-3.7659302,2.7993164-8.5195312,3.7846069-13.3846436,2.7731934c-0.0622559-0.0126953-0.1251831-0.0264893-0.1881714-0.0401611
		c-4.8273315-1.0535278-9.1810303-3.9509277-12.2753906-8.1768188c-0.4382935-0.5985718-0.8323975-1.2229614-1.2059326-1.8579102
		c0.928894,0.9824219,1.9707031,1.8861084,3.1172485,2.6970215c2.416687,1.7095947,5.1469727,2.8984985,8.0325928,3.5283203
		c2.5351562,0.5531616,5.1897583,0.6744995,7.8598022,0.3393555c5.6439819-0.7079468,10.7034912-3.3859863,14.2471924-7.5401001
		c0.3735962-0.4378052,0.3220825-1.1016846-0.1149902-1.4841919c-0.4369507-0.3837891-1.0942383-0.3377075-1.4667969,0.1003418
		c-3.2108154,3.7634888-7.8078613,6.1917725-12.9446411,6.8359985c-5.1917725,0.6524048-10.319458-0.5892334-14.4326172-3.4995117
		c-2.2421875-1.5859375-4.0160522-3.5736084-5.2815552-5.8157349c3.0543823,2.2178345,7.1344604,4.2348022,12.5473022,5.4161377
		c17.3931885,3.7958984,22.1976929-15.826416,22.1976929-15.826416s2.2325439,3.2557373,6.4676514,6.9702148
		c-3.616394,12.3236694-3.6542358,28.2897949-1.7178955,39.7617798c-1.1953735,2.022583-1.4143677,3.9525146,1.335022,6.0834351
		c0.4923096,1.7578125,1.0389404,3.3173828,1.6367188,4.5999146c0.8413086,1.8046875,1.7319336,3.6816406,2.6347656,5.5839844
		c4.7495117,10.0058594,10.1328125,21.3466797,9.8359375,25.7890625c-0.1674805,2.5029297-3.2241211,6.5732422-5.9208984,10.1640625
		c-3.5395508,4.7148438-5.6894531,7.7216797-5.3051758,10.0400391c0.6152344,3.7109375,8.6513672,6.9345703,12.984375,8.4150391
		c-1.9189453,2.1396484-4.5830078,4.6826172-4.6157227,4.7138672c-0.3291016,0.3134766-0.4619141,0.78125-0.347168,1.2207031
		c0.875,3.3564453,9.8735352,9.1533203,12.7172852,10.9150391c0.3115234,2.1123047,1.409668,9.2490234,2.4072266,11.8056641
		c1.1635742,2.9794922,9.2324219,4.6572266,13.4145508,5.3349609c1.4223633,4.6523438,5.4013672,16.2373047,9.7788086,16.4697266
		c3.9008789,0.1904297,21.8422852-12.0859375,28.4711914-16.7333984c2.4384766,27.875-20.4023438,58.6621094-20.6391602,58.9775391
		c-0.3520508,0.46875-0.3310547,1.1201172,0.0507812,1.5644531c0.2441406,0.2851562,0.59375,0.4365234,0.9492188,0.4365234
		c0.2006836,0,0.402832-0.0478516,0.5893555-0.1474609l93.9570312-50.2646484
		c0.3037109-0.1630859,0.5273438-0.4433594,0.6171875-0.7763672s0.0380859-0.6875-0.1425781-0.9814453
		c-0.140625-0.2294922-14.1289062-23.0683594-15.4082031-33.5048828c-0.6182861-5.0488892-1.7033691-13.9219971,0.812439-25.5202637
		c0.9425659,1.0465088,1.9697266,1.8956299,3.0910645,2.4505615c0,0-0.4226685-8.8313599,0.6390991-14.5714111
		c0.0891113-0.2235718,0.1843262-0.4498901,0.2763062-0.6747437c0.911499,0.300415,1.5479736,0.4760742,1.7904663,0.4799194
		c0.0175781,0,0.0361328,0,0.0537109,0c0.8847656,0,1.7128906-0.3417969,2.2783203-0.9443359
		c0.4248047-0.4511719,0.9091797-1.2626953,0.8076172-2.5585938c-0.0195312-0.4863281,0.4326172-2.1884766,2.703125-7.5322266
		c0.1533203-0.3613281,0.2724609-0.6416016,0.3398438-0.8076172c1.4951172-3.6894531,9.4648438-12.6044922,14.3222656-16.5664062
		c3.0844116-2.5144653,7.9769897-10.161499,11.1871338-16.2420044c1.8458862,0.7685547,3.8076782,1.3881226,5.8572998,1.8353882
		c1.4284668,0.3118286,2.9003906,0.5335083,4.3972778,0.6795044c3.0900879,3.4712524,7.4733887,6.1282959,12.630127,7.2537231
		c11.4559937,2.5001831,22.401062-3.460022,24.3988037-13.2857056c1.6064453-7.9024658-3.0585327-15.9320679-10.9044189-20.0750122
		c0.6934204-1.2918091,1.2258911-2.7285767,1.4058228-4.2591553c4.6335449,3.4820557,10.3253784,6.1485596,16.6989746,7.5395508
		c18.866394,4.1174316,36.6378174-4.4489746,39.6157227-19.0959473
		c2.0570679-10.1186523-3.4781494-20.5304565-13.3161011-27.3602295c0.0702515-0.1484985,0.1273804-0.3054199,0.168457-0.4719238
		c0,0,6.2780151,3.4841309,10.0946045,3.6123047c-3.9084473-2.7063599-4.5644531-5.4996948-4.3861084-7.4335938
		c5.5786133-1.5281982,9.8674316-4.7805176,11.6252441-9.4691162c2.5101929-6.6960449-0.7869263-14.5792847-7.744751-20.637085
		c2.5221558-1.6790161,4.4533081-3.951416,5.5002441-6.7439575c2.703186-7.2107544-1.2794189-15.6821289-9.1738281-21.1407471
		c1.4910889-1.9555664,2.9587402-5.0380859,1.5444336-8.6724854c0,0,10.7229004-6.3510742,5.7246704-20.7133179
		c-4.1616821-11.9589844-18.5244751-20.6044922-34.2921143-26.8695679
		c20.3493042-4.1716309,31.6663208,16.2818604,31.6663208,16.2818604
		c-4.3062744-9.6262817-10.4151001-14.87677-16.7197266-17.5765991
		C390.5598145,69.0761108,399.8411865,81.6262817,399.5576172,81.1712646z M59.3433838,128.833374
		c-15.1091919-5.3067627-24.9649658-17.5919189-22.5958862-29.244873c0.4329224-2.1296387,1.2539062-4.1047974,2.3934326-5.9075317
		c1.0203857,9.848999,10.1628418,16.3564453,10.1628418,16.3564453s-2.8208618,11.0116577,10.6845093,15.6031494
		C59.9882812,125.640564,59.3245239,126.8939819,59.3433838,128.833374z M31.0338135,161.5037842
		c0.5733643-9.5996094,9.6908569-16.7880249,20.3247681-16.0241089c0.0463257,0.003418,0.0910034,0.0112915,0.137146,0.0148926
		c-4.9411011,6.4949341-9.1547241,15.8536377-6.2523193,27.2993164c-0.9144287,1.9310303-1.6168213,3.9899902-2.0947876,6.137207
		C35.6802979,176.0512695,30.5778809,169.1496582,31.0338135,161.5037842z M48.0217896,180.1679077
		c-0.9859619-0.1290283-1.9473877-0.3240967-2.8795776-0.5801392c0.2713623-1.2564697,0.6229858-2.4812012,1.0567017-3.6633911
		C46.6956177,177.3111572,47.3024902,178.7266846,48.0217896,180.1679077z M63.8726196,209.8947144
		c-5.5244141-0.399353-10.5773315-3.293335-14.2272339-8.1547241c-3.6835938-4.9078979-5.4970093-11.2205811-5.105957-17.7755127
		c0,0,0,0,0.0001831-0.0003662c0.0465088-0.7822266,0.1259155-1.5557251,0.2332764-2.3202515
		c0.3479004,0.0932007,0.69104,0.1967163,1.0460205,0.2741089c0.7418823,0.1619263,1.5028687,0.2752075,2.2722168,0.3656006
		c-0.1844482,3.9136963,1.7817993,14.757019,26.0413818,25.2633057
		C71.0286865,209.2861938,67.5269775,210.1571655,63.8726196,209.8947144z M325.9371948,51.6886597
		c0,0-6.2440796-3.0958862-15.2752075-10.7225952C310.6619873,40.9660645,319.9771118,43.6375732,325.9371948,51.6886597z
		 M287.1376953,266.4052734c-2.3954468,1.9534912-5.8140259,5.3632202-8.8220215,8.8114624
		c-2.8745117,3.2952271-5.3742676,6.6256104-6.2365723,8.7539673c-0.0644531,0.1582031-0.1777344,0.4248047-0.3242188,0.7685547
		c-0.4147949,0.9763794-0.7790527,1.8519897-1.0968018,2.6386719c-1.3677368,3.3861084-1.8706055,5.1169434-1.7977295,6.0615234
		c0.0136719,0.1757812,0.0136719,0.4951172-0.1376953,0.6572266c-0.0849609,0.0898438-0.2294922,0.1455078-0.4033203,0.1542969
		c-0.1668091-0.038208-0.4798584-0.1352539-0.9140015-0.2822876c-0.1130981-0.0383301-0.2404785-0.0825806-0.3696289-0.1275024
		c-0.2471924-0.0860596-0.5236816-0.1843262-0.8250732-0.2931519c-0.3575439-0.1290283-0.7459106-0.2711792-1.1704102-0.4289551
		c-2.1958008-0.8161011-5.21875-1.9923096-8.3713989-3.2820435c-0.8175049-0.3344116-1.6425171-0.6761475-2.4651489-1.0215454
		c-0.2090454-0.0877686-0.4174194-0.1755371-0.6258545-0.2636719c-4.3721313-1.848999-8.5559692-3.7610474-10.7008667-5.0840454
		c-2.9000854-1.7873535-7.4616089-6.7799072-12.0079956-11.8518066c-0.3495483-0.3899536-0.6990356-0.7802124-1.0476685-1.1696777
		c-0.432251-0.4828491-0.866333-0.9677124-1.3007812-1.4519043c-2.8269653-3.1508789-5.6654663-6.2628174-8.1466064-8.6364746
		c-0.263916-0.2525024-0.5297852-0.5090332-0.7850342-0.7436523c-2.0512695-1.8858032-5.534729-5.4678345-9.5738525-9.7550049
		c-10.0482788-10.6652832-23.5498657-25.7126465-27.1009521-29.9979248
		c-0.6359863-0.767395-1.4562378-1.7429199-2.4078979-2.8659058c4.5916138,1.1687622,9.8000488,1.8258667,15.3660278,1.8258667
		c9.3344727,0,17.6724854-1.8400269,23.7576904-4.8629761c4.4188232,9.3044434,12.2241211,16.8312988,22.0604858,21.2290649
		c2.9275513,1.3093262,5.9087524,2.281311,8.8918457,2.932312c10.380249,2.2653809,20.7850952,0.6411743,29.0899048-4.1616211
		c2.0504761,1.8875122,4.5113525,3.8031006,7.3833618,5.4852905c0.3202515,1.1724854,0.8181763,2.3139038,1.4563599,3.4188232
		c0.2972412,0.5145874,0.6194458,1.0223389,0.9833984,1.5181274c0.3175049,0.4326172,0.6557617,0.8587646,1.0230103,1.2752075
		c1.0332031,1.1714478,2.2592773,2.276123,3.6715698,3.2931519c1.0723877,0.7724609,2.2310181,1.4679565,3.4497681,2.0969849
		C294.7000122,256.6203003,290.2108765,263.9000244,287.1376953,266.4052734z M259.1230469,334.8925781
		c1.1894531,9.7148438,12.1591797,28.5205078,15.0722656,33.375l-88.2597656,47.2167969
		c2.3457031-3.5869141,5.7587891-9.1992188,8.9824219-15.9472656c2.4018555-5.0278931,4.914917-11.1875,6.7398682-17.8647461
		c9.9192505-10.6625977,26.336792-43.9432983,26.336792-43.9432983l-25.8405151,18.1759644
		c-0.0814209,0.034668-0.1643066,0.0661011-0.2380981,0.1184082c-12.2592773,8.6972656-26.3579102,17.5917969-28.6245117,17.4980469
		c-1.934082-0.1025391-5.5649414-8.0673828-7.7421875-15.4404297c-0.137207-0.4658203-0.5322266-0.8095703-1.012207-0.8828125
		c-3.0145264-0.4554443-5.9414673-1.1337891-8.1812134-1.8428955c10.0541992-5.8445435,10.2885132-15.3062744,10.2885132-15.3062744
		c-13.7849731-7.0346069-22.9620972-8.8665161-28.7622681-8.9085083c1.3344116-1.30896,3.7159424-3.7059937,5.0300293-5.3890991
		c0.0008545,0.0003052,0.0087891,0.0032349,0.0091553,0.0033569c3.9089355-3.6109009,3.9275513-9.3810425,3.9275513-9.3810425
		c-5.3340454,2.9039917-10.2680054,3.5955811-13.6835327,3.6216431c-2.1954346-1.1882935-3.7303467-2.3635254-3.8792114-3.2620239
		c-0.2294922-1.3808594,2.5800781-5.1230469,4.8378906-8.1289062c3.0473633-4.0585938,6.1992188-8.2558594,6.4155273-11.5
		c0.3408203-5.0917969-4.9526367-16.2431641-10.0712891-27.0273438c-0.9008789-1.8964844-1.7885742-3.7675781-2.6279297-5.5683594
		c-0.2801514-0.6010132-0.5464478-1.28125-0.8032227-2.0072021c0.7382202,0.0414429,1.4890137-0.2124023,2.3588257-0.914856
		c2.0338745-1.6429443,3.5140991-4.2164307,4.8026733-6.3157349c4.934082-8.0375977,11.473877-16.1494751,23.5521851-14.1665039
		c9.1852417,1.5081177,18.0216064,6.4441528,25.3980103,11.2318115
		c-7.7332764-7.5991821-20.0011597-17.0410156-32.7240601-16.9453125
		c-11.9659424,0.0901489-19.4197998,8.062439-25.208252,15.883728c-0.1711426,0.2312622-0.3440552,0.4594116-0.5167847,0.6853027
		c-1.4076538-10.519043-1.2024536-24.2320557,1.7354126-35.0903931c6.9203491,5.4036255,17.8549805,10.8633423,32.2086792,8.286377
		c0,0-14.6945801-3.3244019-14.2946167-7.5826416c0.3999023-4.2583008,9.3364868-5.8313599,23.4335327-3.5769653
		c0,0,1.5166626,0.0100708,3.7565918-0.3286133c1.3865356,0.7230225,2.9040527,1.3787842,4.5247192,1.9667358
		c2.0328369,2.3787842,3.7796021,4.4401855,4.9252319,5.8225098c3.0474854,3.6769409,13.3934326,15.2463989,22.6491699,25.2318726
		c1.2557373,4.5778809,2.6699219,12.1737061-0.6114502,15.3474731c-4.8465576,4.6876831-0.0385132,12.3568115-0.0385132,12.3568115
		c-1.0726929-4.2393188,0.1118164-9.6192017,6.4370117-10.2368774c3.3859253-0.3306885,6.4763184-1.5203247,8.6262207-2.5559692
		c2.1143188,1.9613037,4.5712891,4.5949707,7.0809326,7.3692017c-17.5916748,0.77948-31.34375,15.6513672-30.7025146,33.2804565
		c0.644165,17.715271,15.5809937,31.6037598,33.2962646,30.9594727c16.6543579-0.6055908,29.9226685-13.84375,30.9173584-30.1463013
		c0.550354,1.1821899,1.1528931,2.315918,1.8087769,3.3626099
		C257.2324829,319.432312,258.4465942,329.3759155,259.1230469,334.8925781z M256.322876,299.9990845
		c0.5970459,16.4127808-12.2696533,30.2512817-28.682312,30.8482056
		c-16.4127808,0.5969238-30.2513428-12.2705078-30.8481445-28.6832275
		c-0.5970459-16.4126587,12.2704468-30.2512817,28.6830444-30.8482056c0.5907593-0.0214844,1.177002-0.0205688,1.7605591-0.0076294
		c0.2407837,0.2688599,0.4820557,0.5379639,0.7219849,0.8060303c5.2324219,5.8447266,10.1748047,11.3662109,13.6064453,13.4824219
		c2.3998413,1.4795532,7.8978882,3.9599609,13.2902222,6.2069702c0.0187378,0.0570068,0.0372314,0.1141357,0.055603,0.1713257
		c0.2281494,0.9356079,0.4923706,1.9464722,0.7949219,3.0046997
		C256.045166,296.6074829,256.260437,298.2823486,256.322876,299.9990845z M185.6455078,206.8532715
		c6.18396,2.6015015,13.8026123,4.1405029,22.0490723,4.1405029c3.5726318,0,7.0231934-0.2952881,10.2955322-0.8334961
		c-4.6669312,1.9423218-10.6390381,3.1102295-17.1409302,3.1102295c-7.0942993,0-13.5548706-1.3920288-18.3803101-3.6618042
		C183.59729,208.8339844,184.6746216,207.9259033,185.6455078,206.8532715z M176.6270752,212.447998
		c1.2528076-0.4176636,2.5431519-0.9385376,3.812439-1.6126099c5.2049561,2.7556152,12.3757935,4.4351196,20.409668,4.4351196
		c6.8171387,0,13.0101929-1.2111206,17.911499-3.2606201c0.0162964,0.0396729,0.0346069,0.0792236,0.0510864,0.1188965
		c-5.817688,2.8909912-13.9486694,4.6925049-22.9395752,4.6925049c-6.5691528,0-12.6603394-0.9744263-17.7446899-2.6201172
		C177.6435547,213.6347046,177.1408081,213.0473633,176.6270752,212.447998z M223.5814209,211.6005859
		c0.7776489,1.3668213,1.6550903,2.7103882,2.6783447,4c9.9181519,12.4998779,31.7884521,18.329895,45.5844116,8.8912964
		c0,0,0.7282104,1.3068848,2.1885986,3.2498779c-9.303894,5.5038452-21.7675781,6.3491211-33.305603,1.19104
		c-7.8956909-3.5309448-14.2850952-9.3640137-18.25177-16.5795288
		C222.8574829,212.1080933,223.2252808,211.8568726,223.5814209,211.6005859z M239.9030151,230.8554688
		c2.6903687,1.2033081,5.4309692,2.0966187,8.1723633,2.6950073c9.7658081,2.1312866,19.5557251,0.517395,27.2764893-4.1411133
		c0.7826538,0.9447021,1.692749,1.96875,2.7414551,3.0299072c-10.0724487,5.5894165-23.305603,6.3135986-35.5788574,0.8256226
		c-5.272583-2.3577271-9.9290771-5.6574097-13.7462769-9.6636353
		C232.0100098,226.5421143,235.7592163,229.0025024,239.9030151,230.8554688z M295.3853149,247.2396851
		c-1.8515625-1.3334351-3.3359985-2.8240967-4.4390259-4.4126587c-0.3880005-0.5587769-0.7282104-1.1294556-1.0189209-1.7105103
		c-0.0339355-0.067749-0.0736084-0.1342773-0.1062012-0.2023315c0.0402222,0.0194702,0.0830688,0.0368042,0.1234131,0.0561523
		c0.3811035,0.1828003,0.772583,0.3573608,1.1659546,0.5303345c2.8457642,1.2514648,6.0116577,2.229248,9.5059204,2.7581787
		l-0.0021973,0.0360718c-0.0394897,0.6224976-0.8192749,2.4831543-2.019104,4.8887939
		C297.4597168,248.600647,296.3811035,247.9567261,295.3853149,247.2396851z M247.6796875,13.7423706
		c1.6376343,0.3572998,3.251709,0.883606,4.8292236,1.5889893c6.9973755,3.1292114,12.2132568,9.2705078,14.6876831,17.2931519
		c0.9624023,3.1211548,1.4605713,6.381958,1.5114746,9.6855469c-1.1484985-3.5203857-3.4859619-9.0996704-7.7313843-13.5081787
		c-5.1036987-5.2998657-13.7283936-12.0407104-20.2741699-15.5745239
		C243.0368652,13.0814819,245.3787842,13.2401733,247.6796875,13.7423706z M206.2628174,22.4440918
		c1.1374512,1.2163696,2.1791992,2.4949951,3.1185913,3.8250732c-0.9442139,1.1946411-1.8829346,2.4616089-2.810791,3.8132935
		c0,0-1.2189941-1.0670776-3.2844238-2.2288818C204.1989136,25.9459839,205.1887817,24.1394653,206.2628174,22.4440918z
		 M184.9910278,10.5683594c7.8035889,1.7030029,14.5909424,5.4272461,19.7479858,10.3449097
		c-1.2068481,1.8692017-2.3096313,3.8737183-3.322937,5.9921265c-2.5628052-1.1707153-5.9058838-2.1641846-9.6430054-1.9315186
		c0,0-31.4765625-23.3416138-42.9275513,2.7692871c-0.8390503-0.97229-1.7369385-1.901062-2.6824951-2.7888794
		C153.170166,13.2767944,168.7783813,7.0302124,184.9910278,10.5683594z M145.1356812,26.8374634
		c1.0140381,0.9801025,1.9559326,2.0193481,2.8334351,3.1026001c-0.1450195,0.4038086-0.2879028,0.8128052-0.4243164,1.2369995
		c0,0-1.2147217-0.9246826-3.3588257-2.2208862C144.4705811,28.2324829,144.7921143,27.5288086,145.1356812,26.8374634z
		 M94.6998901,28.2086792c7.4691772-8.9251099,20.1201782-13.4376221,33.0795288-10.609375
		c6.0444946,1.3190918,11.401001,4.0770874,15.7438965,7.7836914c-0.4255371,0.815979-0.8154907,1.6530762-1.1636963,2.5128174
		C133.1417847,22.758606,113.1350098,14.7293701,94.6998901,28.2086792z M123.1940918,30.0366821
		c-3.4685669-3.4024048-10.15448-4.7703247-10.15448-4.7703247c8.1289062-3.060791,19.873291,2.7862549,19.873291,2.7862549
		C127.9522705,28.4296875,123.1940918,30.0366821,123.1940918,30.0366821z M300.8668213,250.2235718
		c1.2704468-2.5618286,2.1192627-4.6539917,2.2277832-5.6662598c0.7732544,0.0656128,1.559021,0.1123657,2.3620605,0.1317749
		c0.3421021,2.6719971,1.3585205,5.2490234,2.8982544,7.5795898
		C305.7077637,251.8630371,303.1882324,251.1681519,300.8668213,250.2235718z M345.1494141,248.1386719
		c-1.7671509,8.6918335-11.6103516,13.928894-21.9418335,11.6741943c-3.8945923-0.8499756-7.3004761-2.6524048-9.9505615-5.0249023
		c6.7479858,0.1246338,13.1248779-1.4694824,18.0132446-4.5449829c5.1776123-3.2565918,8.0925293-7.7684937,8.2081299-12.7042847
		c0.0410156-1.7493286-0.288208-3.4526367-0.9251099-5.0783081
		C343.5905762,236.4107666,346.3325806,242.3184814,345.1494141,248.1386719z M337.3977661,237.4663696
		c-0.098999,4.2098389-2.6702881,8.1118164-7.2408447,10.9869995c-4.7022095,2.958313-10.9168091,4.4603882-17.4997559,4.2307129
		c-0.5077515-0.0178223-1.0071411-0.0643921-1.5091553-0.1022949c-1.9180298-2.3546753-3.1907349-5.0670166-3.5993042-7.899292
		c25.2672119,0.5565796,27.442688-12.5206299,27.6184082-14.2134399
		C336.6408691,232.6189575,337.4556885,234.9902954,337.3977661,237.4663696z M392.3693848,96.3811035
		c0,0,3.4954834,8.6079102-3.7138062,15.1533813C388.6555786,111.5344849,393.0626831,103.6477051,392.3693848,96.3811035z
		 M391.9655151,212.2479858c-2.7472534,13.5131836-19.4163208,21.3566284-37.1586304,17.4844971
		c-5.0072021-1.0927124-9.5722046-3.0042114-13.4849854-5.4880981c1.9387817,0.7182007,3.9597778,1.3215942,6.0592651,1.7797852
		c18.8665161,4.1173096,36.6383057-4.4489746,39.6162109-19.0960083c1.1083374-5.451355,0.010498-10.9876709-2.7735596-16.0039062
		C390.3709717,196.9644775,393.4993896,204.7036133,391.9655151,212.2479858z M381.6411133,200.0987549
		c0-4.5724487-1.8848267-8.8331909-5.1274414-12.4296875c0.6738892-0.1159058,1.572937-0.3285522,2.3898926-0.72229
		c5.0176392,5.7393188,7.4411011,12.7172852,6.0548096,19.536499c-2.7472534,13.5130005-19.4168091,21.3563843-37.1590576,17.484314
		c-0.9926147-0.2166138-1.9654541-0.4689941-2.9214478-0.748291c1.2004395,0.0927124,2.418396,0.144104,3.6539307,0.144104
		C366.8175659,223.3634033,381.6411133,212.9475098,381.6411133,200.0987549z"/>
</g>
<g>
</g>
<g>
</g>
<g>
</g>
<g>
</g>
<g>
</g>
<g>
</g>
</svg>
